<mxfile host="app.diagrams.net" modified="2022-10-26T02:25:20.593Z" agent="5.0 (Windows NT 10.0; Win64; x64) AppleWebKit/537.36 (KHTML, like Gecko) Chrome/106.0.0.0 Safari/537.36" etag="2nw3PqcH3oNDlfz7Y1PZ" version="20.5.1" type="github">
  <diagram id="Vw1zkadzS7c9t6nOuuBC" name="第 1 页">
    <mxGraphModel dx="545" dy="777" grid="1" gridSize="10" guides="1" tooltips="1" connect="1" arrows="1" fold="1" page="1" pageScale="1" pageWidth="827" pageHeight="1169" math="0" shadow="0">
      <root>
        <mxCell id="0" />
        <mxCell id="1" parent="0" />
        <mxCell id="gNhbE_aYztykma4O1mgL-3" value="" style="edgeStyle=orthogonalEdgeStyle;rounded=0;orthogonalLoop=1;jettySize=auto;html=1;" edge="1" parent="1" source="gNhbE_aYztykma4O1mgL-1" target="gNhbE_aYztykma4O1mgL-2">
          <mxGeometry relative="1" as="geometry" />
        </mxCell>
        <mxCell id="gNhbE_aYztykma4O1mgL-1" value="oracle" style="rounded=1;whiteSpace=wrap;html=1;" vertex="1" parent="1">
          <mxGeometry x="380" y="150" width="120" height="60" as="geometry" />
        </mxCell>
        <mxCell id="gNhbE_aYztykma4O1mgL-5" value="" style="edgeStyle=orthogonalEdgeStyle;rounded=0;orthogonalLoop=1;jettySize=auto;html=1;" edge="1" parent="1" source="gNhbE_aYztykma4O1mgL-2" target="gNhbE_aYztykma4O1mgL-4">
          <mxGeometry relative="1" as="geometry" />
        </mxCell>
        <mxCell id="gNhbE_aYztykma4O1mgL-2" value="python" style="rounded=1;whiteSpace=wrap;html=1;" vertex="1" parent="1">
          <mxGeometry x="210" y="240" width="120" height="60" as="geometry" />
        </mxCell>
        <mxCell id="gNhbE_aYztykma4O1mgL-7" value="" style="edgeStyle=orthogonalEdgeStyle;rounded=0;orthogonalLoop=1;jettySize=auto;html=1;" edge="1" parent="1" source="gNhbE_aYztykma4O1mgL-4" target="gNhbE_aYztykma4O1mgL-6">
          <mxGeometry relative="1" as="geometry" />
        </mxCell>
        <mxCell id="gNhbE_aYztykma4O1mgL-4" value="filebeat" style="rounded=1;whiteSpace=wrap;html=1;" vertex="1" parent="1">
          <mxGeometry x="550" y="240" width="120" height="60" as="geometry" />
        </mxCell>
        <mxCell id="gNhbE_aYztykma4O1mgL-9" value="" style="edgeStyle=orthogonalEdgeStyle;rounded=0;orthogonalLoop=1;jettySize=auto;html=1;" edge="1" parent="1" source="gNhbE_aYztykma4O1mgL-6" target="gNhbE_aYztykma4O1mgL-8">
          <mxGeometry relative="1" as="geometry" />
        </mxCell>
        <mxCell id="gNhbE_aYztykma4O1mgL-6" value="loki" style="rounded=1;whiteSpace=wrap;html=1;" vertex="1" parent="1">
          <mxGeometry x="550" y="360" width="120" height="60" as="geometry" />
        </mxCell>
        <mxCell id="gNhbE_aYztykma4O1mgL-8" value="granafa" style="rounded=1;whiteSpace=wrap;html=1;" vertex="1" parent="1">
          <mxGeometry x="210" y="360" width="120" height="60" as="geometry" />
        </mxCell>
      </root>
    </mxGraphModel>
  </diagram>
</mxfile>
